# Blender v3.2.2 OBJ File: 'floor.blend'
# www.blender.org
mtllib floor.mtl
o Plane_Plane.002
v -15.000000 0.000000 15.000000
v 15.000000 0.000000 15.000000
v -15.000000 0.000000 -15.000000
v 15.000000 0.000000 -15.000000
v -15.000000 1.000000 -15.000000
v -15.000000 1.000000 15.000000
v 15.000000 1.000000 15.000000
v 15.000000 1.000000 -15.000000
v -15.000000 0.000000 25.000000
v 15.000000 0.000000 25.000000
v -15.000000 1.000000 25.000000
v 15.000000 1.000000 25.000000
vt 0.000000 0.000000
vt 0.000000 1.000000
vt 1.000000 1.000000
vt 1.000000 0.000000
vt 0.000000 0.000000
vt 1.000000 0.000000
vt 1.000000 1.000000
vt 0.000000 1.000000
vt 0.000000 0.000000
vt 0.000000 0.000000
vt 1.000000 0.000000
vt 1.000000 0.000000
vn 0.0000 -1.0000 0.0000
vn 0.0000 1.0000 0.0000
vn 1.0000 0.0000 0.0000
vn -1.0000 0.0000 0.0000
vn 0.0000 0.0000 -1.0000
vn 0.0000 0.0000 1.0000
usemtl Light_Wood_Planks
s off
f 1/1/1 3/2/1 4/3/1 2/4/1
f 6/5/2 7/6/2 8/7/2 5/8/2
f 2/4/3 4/3/3 8/7/3 7/6/3
f 3/2/4 1/1/4 6/5/4 5/8/4
f 4/3/5 3/2/5 5/8/5 8/7/5
f 1/1/4 9/9/4 11/10/4 6/5/4
f 7/6/3 12/11/3 10/12/3 2/4/3
f 6/5/2 11/10/2 12/11/2 7/6/2
f 9/9/6 10/12/6 12/11/6 11/10/6
f 2/4/1 10/12/1 9/9/1 1/1/1
